#!OML:ASF F:\VICON\USERDATA\INSTALL\rory3\rory3.ASF
:FULLY-SPECIFIED
:DEGREES
217
root -6.6765 17.7491 5.176 -11.8069 -42.2865 10.7933
lowerback 12.3811 1.29734 -1.89766
upperback 0.65733 1.48454 0.677117
thorax -6.32453 0.784062 1.52359
lowerneck -23.5675 4.50285 -7.75924
upperneck 30.6187 8.32556 3.76018
head 13.8445 3.16564 4.32004
rclavicle -5.1684e-014 -2.70347e-014
rhumerus -37.8982 -20.1535 -66.3884
rradius 33.4709
rwrist 2.03982
rhand -17.4953 8.91865
rfingers 7.12502
rthumb 8.75737 -20.8797
lclavicle -5.1684e-014 -2.70347e-014
lhumerus -31.6071 4.44615 86.9364
lradius 35.524
lwrist -1.33594
lhand -21.204 22.5971
lfingers 7.12502
lthumb 5.1774 52.5139
rfemur -2.2398 2.59695 -0.994203
rtibia 41.314
rfoot -6.59583 -22.342
rtoes 27.5202
lfemur -1.60417 2.89631 -22.5267
ltibia 13.6065
lfoot -3.35477 -3.21708
ltoes -16.8162
218
root -6.63863 17.7478 5.2519 -11.6455 -41.6209 10.5452
lowerback 12.3405 1.22419 -1.8081
upperback 0.684447 1.3991 0.651534
thorax -6.26647 0.738657 1.46215
lowerneck -23.5523 4.60535 -7.63048
upperneck 30.752 8.41975 3.78507
head 13.8953 3.21889 4.33152
rclavicle -5.18828e-014 7.95139e-015
rhumerus -37.672 -20.7735 -66.6692
rradius 33.3243
rwrist 2.82962
rhand -17.5601 8.33567
rfingers 7.12502
rthumb 8.69489 -21.4653
lclavicle -5.18828e-014 7.95139e-015
lhumerus -31.5565 4.24096 86.6229
lradius 35.4759
lwrist -1.86755
lhand -21.0736 21.9178
lfingers 7.12502
lthumb 5.30327 51.8315
rfemur -2.48246 2.60209 -0.599332
rtibia 41.842
rfoot -7.82006 -20.3922
rtoes 23.7346
lfemur -1.86075 2.70593 -22.7538
ltibia 14.244
lfoot -3.82594 -3.48297
ltoes -16.5105
219
root -6.60039 17.7475 5.3266 -11.4217 -40.9532 10.2468
lowerback 12.2886 1.18055 -1.67816
upperback 0.704963 1.36019 0.649393
thorax -6.21084 0.715419 1.39437
lowerneck -23.8492 4.76412 -7.10559
upperneck 31.318 8.62819 3.40035
head 14.2442 3.27513 4.17548
rclavicle -1.84373e-014 -1.59028e-014
rhumerus -37.5101 -20.8626 -67.1101
rradius 33.379
rwrist 3.00406
rhand -17.7225 7.90582
rfingers 7.12502
rthumb 8.5381 -21.9016
lclavicle -1.84373e-014 -1.59028e-014
lhumerus -31.4971 4.00763 86.3581
lradius 35.5125
lwrist -2.10557
lhand -21.0781 21.8942
lfingers 7.12502
lthumb 5.29895 51.8079
rfemur -2.73821 2.63692 -0.100666
rtibia 42.2712
rfoot -8.86574 -19.1688
rtoes 18.7798
lfemur -2.22448 2.31327 -22.9549
ltibia 14.994
lfoot -4.1634 -3.6286
ltoes -15.5451
220
root -6.56375 17.7505 5.39985 -11.0949 -40.3023 9.78024
lowerback 12.3323 1.14079 -1.53634
upperback 0.649879 1.33552 0.780176
thorax -6.29267 0.702424 1.45527
lowerneck -24.0399 4.82447 -6.9706
upperneck 31.7773 8.75969 3.24051
head 14.4995 3.29361 4.14746
rclavicle 1.36814e-013 -3.49861e-014
rhumerus -37.5028 -20.4465 -67.4728
rradius 33.5968
rwrist 2.84096
rhand -17.6471 7.83339
rfingers 7.12502
rthumb 8.61087 -21.971
lclavicle 1.36814e-013 -3.49861e-014
lhumerus -31.6363 3.89516 86.2119
lradius 35.6229
lwrist -2.19974
lhand -21.2024 22.1931
lfingers 7.12502
lthumb 5.17889 52.1098
rfemur -2.97781 2.68036 0.609847
rtibia 42.6055
rfoot -9.70663 -18.7674
rtoes 12.9878
lfemur -2.57409 1.88871 -22.9961
ltibia 15.7511
lfoot -4.38306 -3.75616
ltoes -13.6845
221
root -6.52916 17.7518 5.47056 -10.8412 -39.6514 9.31554
lowerback 12.4716 1.06625 -1.45028
upperback 0.592367 1.25849 0.952125
thorax -6.43095 0.66622 1.59941
lowerneck -24.1114 4.84453 -7.09341
upperneck 32.0483 8.86481 3.23497
head 14.624 3.30602 4.20212
rclavicle 6.84813e-014 -7.95139e-015
rhumerus -37.4452 -20.3092 -67.723
rradius 33.7032
rwrist 3.21074
rhand -17.541 7.72577
rfingers 7.12502
rthumb 8.7133 -22.0744
lclavicle 6.84813e-014 -7.95139e-015
lhumerus -31.8524 3.99767 86.0544
lradius 35.7513
lwrist -2.11754
lhand -21.3694 22.3137
lfingers 7.12502
lthumb 5.01764 52.2343
rfemur -3.17246 2.71735 1.36626
rtibia 42.8758
rfoot -10.4874 -14.936
rtoes 13.2375
lfemur -2.82213 1.68355 -23.0294
ltibia 16.4695
lfoot -4.77127 -3.99132
ltoes -14.1374
222
root -6.49751 17.7514 5.53659 -10.649 -39.1276 8.90798
lowerback 12.5538 1.05133 -1.34077
upperback 0.621313 1.25858 1.03831
thorax -6.44587 0.664005 1.62762
lowerneck -24.2111 4.86953 -7.10544
upperneck 32.1616 8.92299 3.24129
head 14.6917 3.3231 4.22838
rclavicle -1.52716e-013 -2.8625e-014
rhumerus -37.3077 -20.1875 -68.1406
rradius 33.8173
rwrist 3.47751
rhand -17.4854 7.7577
rfingers 7.12502
rthumb 8.7669 -22.0402
lclavicle -1.52716e-013 -2.8625e-014
lhumerus -31.8371 3.96459 85.7746
lradius 35.7786
lwrist -1.86354
lhand -21.9811 22.175
lfingers 7.12502
lthumb 4.42697 52.1087
rfemur -3.45488 2.77027 2.14602
rtibia 43.1173
rfoot -12.1881 -16.6321
rtoes 1.33324
lfemur -3.03099 1.56913 -23.074
ltibia 17.1546
lfoot -5.35797 -4.15622
ltoes -16.2719
223
root -6.46833 17.756 5.60097 -10.3227 -38.694 8.44211
lowerback 12.4458 1.06027 -1.18238
upperback 0.687758 1.30024 1.14622
thorax -6.31557 0.679908 1.64619
lowerneck -24.3536 4.83727 -7.22313
upperneck 32.1738 8.9294 3.28012
head 14.7191 3.31581 4.27221
rclavicle 3.38928e-014 1.11319e-014
rhumerus -37.1618 -19.7086 -68.6723
rradius 34.0703
rwrist 3.45582
rhand -17.409 8.0139
rfingers 7.12502
rthumb 8.84066 -21.7809
lclavicle 3.38928e-014 1.11319e-014
lhumerus -31.699 4.16788 85.4478
lradius 35.7692
lwrist -1.82119
lhand -22.6111 22.3067
lfingers 7.12502
lthumb 3.81867 52.2523
rfemur -3.8913 2.74639 3.00858
rtibia 43.3692
rfoot -11.6249 -11.8727
rtoes 11.2943
lfemur -3.29204 1.2356 -23.0353
ltibia 17.7581
lfoot -5.73083 -4.1477
ltoes -16.3667
224
root -6.43844 17.761 5.66605 -9.97647 -38.2334 8.01979
lowerback 12.2874 1.06512 -1.0145
upperback 0.71949 1.33586 1.22091
thorax -6.19257 0.692809 1.62592
lowerneck -24.3484 4.83292 -7.30827
upperneck 32.0685 8.9495 3.30042
head 14.6628 3.32509 4.29142
rclavicle -2.52705e-014 6.36111e-015
rhumerus -37.063 -19.284 -69.2104
rradius 34.363
rwrist 3.47149
rhand -17.3914 8.06119
rfingers 7.12502
rthumb 8.85766 -21.7329
lclavicle -2.52705e-014 6.36111e-015
lhumerus -31.6111 4.33946 85.1259
lradius 35.7846
lwrist -1.55386
lhand -23.0225 22.6731
lfingers 7.12502
lthumb 3.42142 52.6254
rfemur -4.41327 2.61837 3.84663
rtibia 43.6466
rfoot -12.4927 -10.3632
rtoes 9.94928
lfemur -3.56066 0.817414 -23.0237
ltibia 18.2874
lfoot -5.9297 -4.11674
ltoes -15.5772
225
root -6.40571 17.7589 5.72736 -9.76583 -37.8119 7.62
lowerback 12.3428 1.11183 -0.820111
upperback 0.757191 1.4269 1.26727
thorax -6.18343 0.732129 1.54841
lowerneck -24.413 4.79338 -7.30993
upperneck 32.0133 8.90806 3.27722
head 14.657 3.30713 4.27553
rclavicle -1.19842e-013 -9.54166e-015
rhumerus -36.8979 -19.002 -69.7467
rradius 34.5174
rwrist 3.53223
rhand -17.0208 8.31952
rfingers 7.12502
rthumb 9.21526 -21.4591
lclavicle -1.19842e-013 -9.54166e-015
lhumerus -31.5577 4.49341 84.7782
lradius 35.8348
lwrist -1.28014
lhand -23.2766 22.8529
lfingers 7.12502
lthumb 3.17596 52.809
rfemur -4.87289 2.43838 4.67722
rtibia 43.9317
rfoot -13.3745 -9.01519
rtoes 8.23365
lfemur -3.68726 0.484672 -23.0274
ltibia 18.7729
lfoot -6.20917 -4.01195
ltoes -16.0095
226
root -6.37202 17.7536 5.78316 -9.75464 -37.4098 7.44329
lowerback 12.4954 1.16345 -0.804554
upperback 0.823599 1.49626 1.27343
thorax -6.20065 0.765032 1.5321
lowerneck -24.4903 4.72226 -7.38428
upperneck 31.9458 8.83273 3.30409
head 14.6434 3.27407 4.28554
rclavicle 1.06698e-013 -2.38542e-014
rhumerus -36.6228 -18.7321 -70.2559
rradius 34.5134
rwrist 3.64454
rhand -16.4371 9.3434
rfingers 7.12502
rthumb 9.77845 -20.4096
lclavicle 1.06698e-013 -2.38542e-014
lhumerus -31.5304 4.96282 84.3591
lradius 35.9372
lwrist -1.31111
lhand -23.3014 22.9322
lfingers 7.12502
lthumb 3.15202 52.8887
rfemur -5.30943 2.20079 5.31724
rtibia 44.209
rfoot -14.4852 -7.66903
rtoes 6.60544
lfemur -3.74131 0.22643 -23.1994
ltibia 19.2015
lfoot -6.44437 -3.96846
ltoes -16.2622
227
root -6.3427 17.7526 5.84193 -9.81248 -37.0493 7.33954
lowerback 12.6246 1.24262 -0.838055
upperback 0.904582 1.59288 1.24353
thorax -6.19042 0.811941 1.50088
lowerneck -24.6519 4.63358 -7.41018
upperneck 31.9679 8.71573 3.35343
head 14.6927 3.22583 4.29902
rclavicle -4.89259e-014 -4.77083e-015
rhumerus -36.3793 -18.747 -70.694
rradius 34.4776
rwrist 4.11678
rhand -16.2717 10.1523
rfingers 7.12502
rthumb 9.93807 -19.5931
lclavicle -4.89259e-014 -4.77083e-015
lhumerus -31.4966 5.4189 83.8847
lradius 36.0295
lwrist -1.38609
lhand -23.0312 23.1492
lfingers 7.12502
lthumb 3.41295 53.1016
rfemur -5.73918 1.97823 5.95133
rtibia 44.461
rfoot -15.5832 -6.25655
rtoes 4.06406
lfemur -3.7179 -0.016436 -23.4086
ltibia 19.5941
lfoot -6.7012 -3.95729
ltoes -15.7882
228
root -6.3173 17.7535 5.90129 -9.73933 -36.6331 7.12314
lowerback 12.6914 1.28099 -0.792826
upperback 0.936205 1.64872 1.23085
thorax -6.19442 0.837579 1.45109
lowerneck -24.7526 4.59124 -7.37733
upperneck 32.0112 8.64547 3.37792
head 14.7396 3.20045 4.29923
rclavicle 2.40529e-014 1.74931e-014
rhumerus -36.2278 -18.3749 -71.2567
rradius 34.6516
rwrist 4.29453
rhand -16.3021 10.5351
rfingers 7.12502
rthumb 9.90872 -19.2117
lclavicle 2.40529e-014 1.74931e-014
lhumerus -31.4023 5.82635 83.3959
lradius 35.9055
lwrist -1.11234
lhand -22.6062 23.2627
lfingers 7.12502
lthumb 3.82339 53.2081
rfemur -6.23199 1.65997 6.72881
rtibia 44.7076
rfoot -16.5458 -4.98188
rtoes 1.03442
lfemur -3.71619 -0.313486 -23.5146
ltibia 19.9272
lfoot -6.8677 -3.96129
ltoes -15.2689
229
root -6.2954 17.7547 5.95371 -9.46098 -36.3267 6.71924
lowerback 12.7325 1.34921 -0.661946
upperback 0.888696 1.76189 1.27984
thorax -6.26916 0.890736 1.40722
lowerneck -24.8303 4.58369 -7.40196
upperneck 32.1911 8.59836 3.55607
head 14.8271 3.19455 4.38226
rclavicle 6.49529e-014 -3.02153e-014
rhumerus -36.2177 -17.8469 -71.819
rradius 34.9797
rwrist 4.46172
rhand -16.0179 10.9852
rfingers 7.12502
rthumb 10.1828 -18.7483
lclavicle 6.49529e-014 -3.02153e-014
lhumerus -31.4061 6.07828 82.9496
lradius 35.8219
lwrist -0.305389
lhand -22.7286 23.1329
lfingers 7.12502
lthumb 3.70522 53.0804
rfemur -6.86893 1.46124 7.75846
rtibia 44.9341
rfoot -17.5633 -3.78862
rtoes -1.14303
lfemur -3.83603 -0.556171 -23.4012
ltibia 20.2635
lfoot -6.95161 -3.92948
ltoes -14.1238
230
root -6.2762 17.7526 5.99649 -9.23669 -36.1758 6.45952
lowerback 12.771 1.4902 -0.763825
upperback 0.854721 1.93981 1.35117
thorax -6.33846 0.982219 1.5066
lowerneck -24.8955 4.54191 -7.64089
upperneck 32.2611 8.5439 3.85055
head 14.8432 3.18474 4.53926
rclavicle 7.71533e-014 3.18055e-015
rhumerus -36.1065 -17.4618 -72.2642
rradius 35.2505
rwrist 4.7915
rhand -15.5751 11.2693
rfingers 7.12502
rthumb 10.6101 -18.4429
lclavicle 7.71533e-014 3.18055e-015
lhumerus -31.5036 6.58712 82.5177
lradius 35.9288
lwrist 0.230281
lhand -23.2461 23.0158
lfingers 7.12502
lthumb 3.20546 52.9715
rfemur -7.58988 1.45801 8.70156
rtibia 45.1528
rfoot -18.5753 -2.35246
rtoes -1.36544
lfemur -4.05218 -0.64689 -23.3572
ltibia 20.6557
lfoot -7.13442 -3.91613
ltoes -14.0578
231
root -6.25551 17.7493 6.03928 -8.96598 -35.9223 6.13169
lowerback 12.7709 1.56798 -0.826248
upperback 0.846408 2.043 1.48343
thorax -6.35815 1.03653 1.66254
lowerneck -24.8547 4.48068 -7.86943
upperneck 32.1643 8.52818 3.89946
head 14.7769 3.16495 4.58547
rclavicle -6.95498e-014 3.18055e-015
rhumerus -35.8533 -17.1055 -72.6113
rradius 35.3008
rwrist 5.16405
rhand -15.2189 11.6685
rfingers 7.12502
rthumb 10.9537 -18.0258
lclavicle -6.95498e-014 3.18055e-015
lhumerus -31.6143 7.3185 82.1131
lradius 35.9897
lwrist 0.145438
lhand -23.5365 22.9568
lfingers 7.12502
lthumb 2.92495 52.9165
rfemur -8.24941 1.30312 9.70726
rtibia 45.3286
rfoot -19.5521 -0.935976
rtoes -2.37347
lfemur -4.32627 -0.596746 -23.2482
ltibia 21.0748
lfoot -7.25389 -4.14068
ltoes -13.3923
